<?xml version="1.0" encoding="iso-8859-1"?>
<!-- Generator: Adobe Illustrator 19.0.0, SVG Export Plug-In . SVG Version: 6.00 Build 0)  -->
<svg xmlns="http://www.w3.org/2000/svg" xmlns:xlink="http://www.w3.org/1999/xlink" version="1.1" id="Capa_1" x="0px" y="0px" viewBox="0 0 490 490" style="enable-background:new 0 0 490 490;" xml:space="preserve" width="512px" height="512px">
<path id="XMLID_861_" d="M425.789,284.442c2.684-12.293,0.081-25.245-7.141-35.534c-7.204-10.266-18.466-17.099-30.898-18.749  l-95.127-12.62c-0.01-0.017-0.02-0.034-0.029-0.051l36.634-88.694c4.787-11.591,4.5-24.76-0.787-36.132  c-5.3-11.398-15.216-20.129-27.204-23.951C283.108,62.931,264.188,60,245,60c-19.188,0-38.109,2.931-56.237,8.711  c-11.988,3.822-21.904,12.553-27.204,23.952c-5.288,11.371-5.574,24.541-0.787,36.132l36.634,88.692  c-0.01,0.018-0.02,0.035-0.03,0.052l-95.127,12.62c-12.431,1.65-23.693,8.483-30.897,18.748  c-7.222,10.289-9.825,23.241-7.141,35.535c4.059,18.591,10.981,36.442,20.575,53.058c9.595,16.619,21.594,31.54,35.662,44.347  c8.327,7.58,19.225,11.759,30.397,11.758c1.313,0,2.631-0.058,3.948-0.174c12.492-1.107,24.04-7.444,31.684-17.385l58.474-76.047  c0.017,0,0.033,0.001,0.05,0.001c0.017,0,0.033-0.001,0.05-0.001l58.473,76.047c7.645,9.941,19.193,16.277,31.685,17.385  c1.317,0.116,2.633,0.174,3.946,0.174c11.172,0,22.072-4.178,30.397-11.758c14.07-12.809,26.069-27.729,35.663-44.347  C414.81,320.882,421.731,303.03,425.789,284.442z M270,245c0,12.21-8.801,22.397-20.391,24.567c-0.018,0.003-0.035,0.007-0.052,0.01  c-1.479,0.273-3,0.424-4.556,0.424c-1.559,0-3.083-0.15-4.564-0.425c-0.014-0.002-0.027-0.005-0.041-0.007  C228.803,267.399,220,257.211,220,245c0-13.785,11.215-25,25-25S270,231.215,270,245z M188.763,105.311  c1.799-3.87,5.036-6.717,9.114-8.018C213.054,92.454,228.908,90,245,90c16.091,0,31.945,2.454,47.123,7.293  c4.077,1.301,7.314,4.147,9.114,8.018c1.786,3.843,1.879,8.115,0.262,12.031l-32.328,78.268c-7.3-3.587-15.503-5.61-24.171-5.61  c-8.668,0-16.871,2.023-24.171,5.61L188.5,117.342C186.883,113.426,186.976,109.153,188.763,105.311z M162.694,357.759  c-2.583,3.359-6.329,5.415-10.549,5.788c-4.251,0.375-8.336-1.003-11.501-3.885c-11.779-10.722-21.831-23.226-29.877-37.162  c-8.045-13.934-13.847-28.892-17.246-44.456c-0.913-4.182-0.065-8.409,2.387-11.902c2.435-3.469,6.088-5.686,10.288-6.242  l83.948-11.137c1.183,17.413,10.493,32.631,24.173,41.861L162.694,357.759z M396.479,278.045  c-3.396,15.563-9.198,30.52-17.244,44.455s-18.098,26.438-29.878,37.163c-3.166,2.882-7.258,4.254-11.501,3.885  c-4.221-0.374-7.968-2.431-10.55-5.789l-51.621-67.136c13.679-9.23,22.989-24.448,24.172-41.861l83.948,11.137  c4.2,0.557,7.854,2.774,10.288,6.242C396.545,269.635,397.392,273.862,396.479,278.045z M475,460h-23.787l-37.42-37.42  c1.498-1.425,2.981-2.871,4.449-4.338C464.516,371.967,490,310.441,490,245s-25.484-126.967-71.759-173.241S310.441,0,245,0  C179.558,0,118.033,25.484,71.759,71.759S0,179.559,0,245s25.484,126.967,71.759,173.241c1.467,1.467,2.951,2.913,4.449,4.338  L38.787,460H15c-8.284,0-15,6.716-15,15s6.716,15,15,15h60c8.284,0,15-6.716,15-15c0-6.434-4.059-11.907-9.75-14.037l18.984-18.984  C141.172,473.151,191.791,490,245,490c53.209,0,103.828-16.849,145.767-48.021l18.984,18.984c-5.691,2.13-9.75,7.603-9.75,14.037  c0,8.284,6.716,15,15,15h60c8.284,0,15-6.716,15-15S483.284,460,475,460z M30,245c0-118.552,96.449-215,215-215  c118.552,0,215,96.448,215,215s-96.448,215-215,215C126.449,460,30,363.552,30,245z" fill="#FFFFFF"/>
<g>
</g>
<g>
</g>
<g>
</g>
<g>
</g>
<g>
</g>
<g>
</g>
<g>
</g>
<g>
</g>
<g>
</g>
<g>
</g>
<g>
</g>
<g>
</g>
<g>
</g>
<g>
</g>
<g>
</g>
</svg>
