<?xml version="1.0" encoding="iso-8859-1"?>
<!-- Generator: Adobe Illustrator 18.1.1, SVG Export Plug-In . SVG Version: 6.00 Build 0)  -->
<svg xmlns="http://www.w3.org/2000/svg" xmlns:xlink="http://www.w3.org/1999/xlink" version="1.1" id="Capa_1" x="0px" y="0px" viewBox="0 0 612 612" style="enable-background:new 0 0 612 612;" xml:space="preserve" width="512px" height="512px">
<g>
	<g>
		<path d="M424.526,487.321c0-1.143-0.02-2.281-0.052-3.416c-1.809-64.601-54.742-116.415-119.78-116.415    s-117.971,51.814-119.78,116.415c-0.032,1.135-0.052,2.274-0.052,3.417c0,66.181,53.651,119.832,119.832,119.832    C370.876,607.153,424.526,553.502,424.526,487.321z M374.148,462.748c13.572,0,24.573,11.002,24.573,24.573    c0,4.688-1.314,9.069-3.593,12.797c-4.317,7.063-12.098,11.777-20.981,11.777c-2.53,0-4.971-0.383-7.268-1.094    c-10.023-3.099-17.305-12.438-17.305-23.48C349.575,473.75,360.576,462.748,374.148,462.748z M304.695,393.294    c13.571,0,24.573,11.002,24.573,24.573c0,13.571-11.002,24.573-24.573,24.573c-13.572,0-24.573-11.002-24.573-24.573    C280.122,404.296,291.123,393.294,304.695,393.294z M242.509,510.8c-2.297,0.71-4.737,1.094-7.268,1.094    c-8.883,0-16.664-4.714-20.981-11.777c-2.278-3.727-3.593-8.108-3.593-12.797c0-13.571,11.002-24.573,24.573-24.573    c13.572,0,24.573,11.002,24.573,24.573C259.814,498.362,252.532,507.701,242.509,510.8z M280.122,556.774    c0-13.572,11.001-24.573,24.573-24.573c13.571,0,24.573,11.002,24.573,24.573c0,13.572-11.002,24.573-24.573,24.573    C291.123,581.348,280.122,570.346,280.122,556.774z" fill="#FFFFFF"/>
		<path d="M593.111,199.219H538.49C533.824,87.524,503.377,4.848,304.695,4.848c-198.683,0-229.13,82.677-233.796,194.371h-52.01    C8.457,199.219,0,207.675,0,218.108v46.147c0,10.432,8.457,18.889,18.889,18.889h51.918c5.304,73.029,38.36,137.471,87.59,180.62    c1.869-11.702,5.132-23.117,9.788-34.125c7.464-17.647,18.143-33.489,31.742-47.087c13.598-13.598,29.441-24.277,47.087-31.742    c18.285-7.734,37.692-11.655,57.681-11.655s39.397,3.921,57.681,11.655c17.647,7.464,33.489,18.143,47.087,31.742    c13.598,13.598,24.277,29.441,31.742,47.087c4.655,11.007,7.919,22.422,9.788,34.125c49.23-43.148,82.286-107.591,87.59-180.62    h54.528c10.432,0,18.889-8.457,18.889-18.889v-46.147C612,207.676,603.543,199.219,593.111,199.219z M245.026,287.874    c-26.434,26.434-69.291,26.434-95.725,0c-26.434-26.434-21.397-64.254,5.037-90.688s64.254-31.471,90.688-5.037    S271.46,261.441,245.026,287.874z M460.088,287.874c-26.434,26.434-69.291,26.434-95.725,0c-26.434-26.434-26.434-69.291,0-95.725    c26.434-26.434,64.254-21.397,90.688,5.037S486.522,261.441,460.088,287.874z" fill="#FFFFFF"/>
	</g>
</g>
<g>
</g>
<g>
</g>
<g>
</g>
<g>
</g>
<g>
</g>
<g>
</g>
<g>
</g>
<g>
</g>
<g>
</g>
<g>
</g>
<g>
</g>
<g>
</g>
<g>
</g>
<g>
</g>
<g>
</g>
</svg>
